<svg width="210" height="210" viewBox="0 0 210 210" fill="none" xmlns="http://www.w3.org/2000/svg">
<g clip-path="url(#clip0_101_111)">
<path d="M47.2281 111.754C47.7722 111.608 48.206 111.256 48.4669 110.804C48.7278 110.352 48.8162 109.8 48.6704 109.256L48.1425 107.286L50.1127 106.758C50.6568 106.612 51.0906 106.259 51.3515 105.808C51.6123 105.356 51.7008 104.804 51.555 104.26C51.2634 103.171 50.1451 102.526 49.0569 102.817L47.0867 103.345L46.5588 101.375C46.2672 100.287 45.1489 99.6412 44.0607 99.9328C42.9725 100.224 42.3268 101.343 42.6184 102.431L43.1463 104.401L41.1761 104.929C40.0879 105.221 39.4422 106.339 39.7338 107.427C40.0254 108.515 41.1437 109.161 42.2319 108.869L44.2021 108.341L44.73 110.312C45.0218 111.401 46.1397 112.046 47.2281 111.754Z" fill="white"/>
<path d="M105.776 52.2232L60.8103 78.0854C60.178 78.4471 59.7856 79.1268 59.7882 79.8556L59.8735 131.728C59.8747 132.455 60.2634 133.128 60.8932 133.492L105.944 159.502C106.574 159.866 107.351 159.866 107.981 159.503L152.947 133.641C153.263 133.46 153.519 133.199 153.696 132.893C153.872 132.587 153.97 132.235 153.969 131.871L153.883 79.9983C153.882 79.2709 153.494 78.5978 152.864 78.2341L107.813 52.2241C107.183 51.8605 106.406 51.8605 105.776 52.2232ZM149.806 81.1797L149.887 130.694L106.966 155.381L63.9508 130.546L63.8693 81.0317L106.791 56.345L149.806 81.1797Z" fill="white"/>
<path d="M65.9714 83.4256L66.025 128.213C66.0261 128.94 66.4139 129.613 67.0447 129.977L105.912 152.417C106.543 152.781 107.319 152.781 107.949 152.418L146.763 130.071C147.08 129.888 147.336 129.629 147.512 129.323C147.689 129.017 147.785 128.666 147.785 128.3L147.732 83.5133C147.73 82.786 147.343 82.1133 146.712 81.7492L107.845 59.3092C107.214 58.9451 106.438 58.9455 105.807 59.3082L66.9934 81.6554C66.3592 82.0206 65.9705 82.6937 65.9714 83.4256ZM106.824 63.4309L143.653 84.6946L143.705 127.125L106.933 148.295L70.1036 127.032L70.052 84.6014L106.824 63.4309Z" fill="white"/>
<path d="M74.7313 108.503C74.1675 109.48 74.5023 110.727 75.478 111.29L105.226 128.465L79.62 123.226C78.6388 123.025 77.6598 123.582 77.3038 124.5C76.9483 125.436 77.3253 126.49 78.1915 126.99L104.692 142.29C105.667 142.853 106.915 142.52 107.479 141.543C108.042 140.567 107.707 139.32 106.732 138.757L91.1178 129.742L116.723 134.981C117.594 135.159 118.465 134.753 118.897 134.005C118.952 133.91 118.999 133.81 119.039 133.707C119.395 132.771 119.018 131.716 118.151 131.216L77.5176 107.756C76.5423 107.193 75.2951 107.527 74.7313 108.503Z" fill="white"/>
<path d="M73.6889 87.9202L73.9851 102.225C73.9996 102.939 74.3856 103.593 75.0044 103.95L124.472 132.51C125.447 133.073 126.695 132.74 127.258 131.763C127.822 130.787 127.487 129.54 126.512 128.976L103.545 115.716L109.665 105.116C110.229 104.14 109.894 102.893 108.918 102.33C107.942 101.766 106.695 102.1 106.131 103.076L100.011 113.676L78.0399 100.991L77.7927 89.0499L89.0396 82.6288C90.0191 82.0695 90.3591 80.8236 89.799 79.8466C89.2401 78.8685 87.9953 78.5266 87.0151 79.0861L74.7159 86.1069C74.0681 86.4761 73.6748 87.1736 73.6889 87.9202Z" fill="white"/>
<path d="M94.7584 79.2642L100.195 76.0928L137.532 97.6495C138.508 98.2128 139.755 97.8793 140.319 96.9028C140.882 95.9262 140.548 94.6794 139.572 94.1161L104.253 73.725L107.306 71.9443C107.623 71.7593 107.872 71.5006 108.043 71.2042C108.398 70.5898 108.422 69.8105 108.039 69.1544C107.472 68.1804 106.223 67.8525 105.25 68.4201L92.7024 75.7393C91.7256 76.3072 91.399 77.5561 91.9681 78.5289C92.5358 79.5039 93.7852 79.8319 94.7584 79.2642Z" fill="white"/>
</g>
<defs>
<clipPath id="clip0_101_111">
<rect width="153" height="153" fill="white" transform="translate(0.686523 132.888) rotate(-60)"/>
</clipPath>
</defs>
</svg>
